<svg xmlns="http://www.w3.org/2000/svg" width="20" height="20" fill="#000" viewBox="0 0 20 20">
  <path fill-rule="evenodd" d="M8.86 6.34c.52-.7.7-1.44.12-2.09A31.94 31.94 0 0 0 6.23.73a2.72 2.72 0 0 0-3.7 0c-.5.48-.66.65-1.17 1.16-2.8 2.8-1.1 8.74 3.46 13.3 4.54 4.54 10.48 6.26 13.29 3.44.46-.44.86-.84 1.17-1.17a2.7 2.7 0 0 0 0-3.68 29.9 29.9 0 0 0-3.54-2.76c-.59-.53-1.29-.41-1.92 0-.31.2-.53.41-.96.83l-.76.77c-.1.1-1.47-.59-2.8-1.92C7.96 9.37 7.28 8 7.38 7.9l.77-.77a14.84 14.84 0 0 0 .71-.8Zm4.65 7.7.77-.77c.23-.24.38-.38.5-.48a28.07 28.07 0 0 1 3.05 2.38c.24.25.2.7 0 .92-.3.3-.66.68-1.12 1.12-1.82 1.82-6.6.43-10.48-3.44C2.36 9.89.98 5.1 2.78 3.3l1.15-1.15c.18-.18.67-.22.9 0 .42.42 1.21 1.44 2.38 3.06a4.22 4.22 0 0 1-.48.5l-.76.77c-1.3 1.3-.2 3.52 1.91 5.64 2.1 2.1 4.33 3.22 5.63 1.91ZM11.66.06a9.5 9.5 0 0 1 8.28 8.27l-1.98.33a7.5 7.5 0 0 0-6.63-6.63l.33-1.97ZM11 4.02A5.5 5.5 0 0 1 15.98 9L14 9.33A3.5 3.5 0 0 0 10.67 6L11 4.02Z" clip-rule="evenodd"/>
</svg>
