<svg xmlns="http://www.w3.org/2000/svg" width="36" height="36" fill="none" viewBox="0 0 36 36">
  <path fill="#fff" fill-opacity=".1" fill-rule="evenodd" d="M17.913 1.214c9.188 0 16.636 7.448 16.636 16.636 0 9.188-7.448 16.636-16.636 16.636-9.188 0-16.636-7.448-16.636-16.636 0-9.188 7.448-16.636 16.636-16.636Z" clip-rule="evenodd"/>
  <path fill="#FEFAFA" d="M18.04 7C11.949 7 7 11.948 7 18.04c0 6.091 4.948 11.04 11.04 11.04 6.091 0 11.04-4.948 11.04-11.04C29.08 11.949 24.132 7 18.04 7Zm0 .96c5.573 0 10.08 4.507 10.08 10.08s-4.507 10.08-10.08 10.08a10.1 10.1 0 0 1-2.93-.433c.413-.69.946-1.677 1.158-2.492l.643-2.453c.336.641 1.319 1.185 2.365 1.185 3.112 0 5.356-2.863 5.356-6.42 0-3.41-2.783-5.96-6.363-5.96-4.454 0-6.819 2.99-6.819 6.245 0 1.513.806 3.398 2.095 3.998.195.09.3.052.345-.138.034-.143.208-.844.287-1.17a.31.31 0 0 0-.072-.296c-.426-.518-.768-1.468-.768-2.355 0-2.276 1.723-4.48 4.659-4.48 2.535 0 4.31 1.729 4.31 4.2 0 2.791-1.409 4.726-3.243 4.726-1.013 0-1.772-.838-1.528-1.866.291-1.227.855-2.55.855-3.436 0-.792-.425-1.453-1.306-1.453-1.036 0-1.868 1.07-1.868 2.506 0 .913.31 1.532.31 1.532s-1.023 4.325-1.21 5.13c-.188.804-.138 1.887-.06 2.694A10.073 10.073 0 0 1 7.96 18.04c0-5.573 4.507-10.08 10.08-10.08Z"/>
</svg>
