<svg xmlns="http://www.w3.org/2000/svg" width="16" height="16" fill="none" viewBox="0 0 16 16">
  <path fill="#fff" fill-rule="evenodd" d="M8 16A8 8 0 1 1 8 0a8 8 0 0 1 0 16Zm5.38-4.27a6.55 6.55 0 1 0-10.76 0c.82-1.08 2.74-1.55 5.38-1.55 2.64 0 4.56.47 5.38 1.55Zm-1.04 1.17c-.21-.76-1.74-1.26-4.34-1.26-2.6 0-4.13.5-4.34 1.26a6.52 6.52 0 0 0 8.68 0ZM8 3.64a2.8 2.8 0 0 0-2.9 2.9c0 2.5 1.27 3.64 2.9 3.64 1.61 0 2.9-1.1 2.9-3.49 0-1.66-1.14-3.05-2.9-3.05Zm-1.45 2.9c0 1.66.6 2.19 1.45 2.19.86 0 1.45-.51 1.45-2.04 0-.9-.57-1.6-1.45-1.6-.92 0-1.45.6-1.45 1.46Z" clip-rule="evenodd" opacity=".8"/>
</svg>
