<svg xmlns="http://www.w3.org/2000/svg" width="108" height="18" fill="#fff" viewBox="0 0 108 18">
  <path fill-rule="evenodd" d="M103.7 2.66v14.79h-2.11V2.65h-3.75V1.03h9.61v1.64h-3.75Zm-8.12 8.7c-.37.46-.83.79-1.39.98-.55.2-1.21.3-1.98.3a11.97 11.97 0 0 1-2.34-.24v5.05h-2.11V1.25c.6-.17 1.19-.3 1.79-.36.6-.07 1.25-.11 1.96-.11.94 0 1.73.1 2.39.3.66.19 1.19.51 1.6.97.4.45.7 1.05.88 1.8.2.76.29 1.69.29 2.8 0 1.14-.1 2.1-.27 2.86a4.62 4.62 0 0 1-.82 1.85Zm-1.2-6.82a3.3 3.3 0 0 0-.55-1.34 2 2 0 0 0-.95-.7 4.2 4.2 0 0 0-1.37-.2h-1.64V11h1.64c.53 0 .99-.07 1.37-.2a2 2 0 0 0 .95-.7c.25-.33.43-.77.55-1.34.12-.56.18-1.26.18-2.11 0-.85-.06-1.55-.18-2.11Zm-11.9 8.68H77.8l-1.05 4.23h-2.11L78.6 1.02h3.05l3.99 16.43h-2.11l-1.06-4.23Zm-2.3-9.86h-.09l-1.95 8.22h3.99l-1.95-8.22ZM70.06 5.24h-.12l-3.4 10.1h-2.11l-3.4-10.1h-.12l-.7 12.21H58.1l.94-16.43h2.58l3.82 11.26h.1l3.81-11.26h2.58l.94 16.43h-2.11l-.7-12.2ZM54.3 15.92c-.44.65-.96 1.1-1.58 1.37-.62.26-1.33.4-2.12.4-.8 0-1.5-.14-2.12-.4a3.68 3.68 0 0 1-1.59-1.37 7.22 7.22 0 0 1-1-2.6 20.58 20.58 0 0 1-.33-4.09c0-1.64.11-3 .34-4.1a7.22 7.22 0 0 1 1-2.59c.43-.64.96-1.1 1.58-1.36.61-.27 1.32-.4 2.12-.4s1.5.13 2.12.4c.62.27 1.14.72 1.58 1.36.44.64.77 1.5 1 2.6.22 1.08.34 2.45.34 4.1 0 1.64-.12 3-.34 4.09a7.22 7.22 0 0 1-1 2.6ZM53.28 5.76a8.2 8.2 0 0 0-.64-2.16c-.27-.53-.58-.9-.94-1.1-.36-.2-.73-.31-1.1-.31-.38 0-.75.1-1.1.3-.36.2-.68.58-.94 1.1a8.21 8.21 0 0 0-.65 2.17c-.16.9-.24 2.06-.24 3.47 0 1.41.08 2.57.24 3.48.17.9.38 1.63.65 2.16.26.53.58.9.93 1.1.36.2.73.3 1.1.3.38 0 .75-.1 1.1-.3.37-.2.68-.57.95-1.1a8.2 8.2 0 0 0 .64-2.16c.17-.91.25-2.07.25-3.48 0-1.4-.08-2.56-.25-3.47ZM40.63 9.94h-4.92v7.51H33.6V1.02h2.1v7.27h4.93V1.02h2.11v16.43h-2.1V9.94ZM29.5 17.45l-2.93-7.04-2.93 7.04h-2.11L25.04 9l-3.16-7.98h2.1l2.59 6.57 2.58-6.57h2.1L28.1 9l3.52 8.45H29.5ZM12.27 1.02h7.97v1.64h-5.86v5.4h5.15V9.7h-5.15v6.1h5.86v1.65h-7.97V1.02ZM6.64 17.45H4.53V2.65H.78V1.03h9.61v1.64H6.64v14.79Z" clip-rule="evenodd"/>
</svg>
