<svg xmlns="http://www.w3.org/2000/svg" width="108" height="20" fill="#fff" viewBox="0 0 108 20">
  <path fill-rule="evenodd" d="M103.7 2.54V19.1h-2.11V2.54h-3.75V.7h9.61v1.84h-3.75Zm-8.12 9.74c-.37.52-.83.89-1.39 1.1-.55.22-1.21.33-1.98.33a10.7 10.7 0 0 1-2.34-.26v5.65h-2.11V.96c.6-.2 1.19-.33 1.79-.4.6-.09 1.25-.13 1.96-.13.94 0 1.73.11 2.39.33.66.22 1.19.59 1.6 1.1.4.5.7 1.18.88 2.02.2.84.29 1.88.29 3.13 0 1.28-.1 2.35-.27 3.2a5.49 5.49 0 0 1-.82 2.07Zm-1.2-7.64a3.95 3.95 0 0 0-.55-1.5 2.02 2.02 0 0 0-.95-.77 3.78 3.78 0 0 0-1.37-.23h-1.64v9.73h1.64c.53 0 .99-.07 1.37-.22.38-.15.7-.4.95-.78.25-.36.43-.86.55-1.5.12-.63.18-1.42.18-2.36 0-.95-.06-1.74-.18-2.37Zm-11.9 9.73H77.8l-1.05 4.73h-2.11L78.6.7h3.05l3.99 18.4h-2.11l-1.06-4.73Zm-2.3-11.04h-.09l-1.95 9.2h3.99l-1.95-9.2Zm-10.12 2.1h-.12l-3.4 11.3h-2.11l-3.4-11.3h-.12l-.7 13.67H58.1L59.04.7h2.58l3.82 12.62h.1L69.34.7h2.58l.94 18.4h-2.11l-.7-13.67ZM54.3 17.39a3.83 3.83 0 0 1-1.58 1.53c-.62.3-1.33.45-2.12.45-.8 0-1.5-.15-2.12-.45-.62-.3-1.15-.8-1.59-1.53a8.68 8.68 0 0 1-1-2.9 25.74 25.74 0 0 1-.33-4.59c0-1.84.11-3.37.34-4.59a8.68 8.68 0 0 1 1-2.9c.43-.72.96-1.23 1.58-1.53.61-.3 1.32-.45 2.12-.45s1.5.15 2.12.45c.62.3 1.14.8 1.58 1.53.44.71.77 1.68 1 2.9.22 1.22.34 2.75.34 4.59 0 1.84-.12 3.37-.34 4.59a8.68 8.68 0 0 1-1 2.9ZM53.28 6.01a10.03 10.03 0 0 0-.64-2.42c-.27-.6-.58-1-.94-1.24a2.03 2.03 0 0 0-1.1-.34c-.38 0-.75.12-1.1.34-.36.23-.68.64-.94 1.24-.27.6-.48 1.4-.65 2.42a25.2 25.2 0 0 0-.24 3.89c0 1.58.08 2.88.24 3.9.17 1 .38 1.82.65 2.41.26.6.58 1 .93 1.24.36.23.73.34 1.1.34.38 0 .75-.11 1.1-.34.37-.23.68-.64.95-1.24.26-.6.48-1.4.64-2.42.17-1.01.25-2.31.25-3.89s-.08-2.87-.25-3.9Zm-12.65 4.68h-4.92v8.41H33.6V.7h2.1v8.15h4.93V.7h2.11v18.4h-2.1V10.7ZM29.5 19.1l-2.93-7.88-2.93 7.88h-2.11l3.51-9.46L21.88.7h2.1l2.59 7.36L29.15.7h2.1L28.1 9.64l3.52 9.46H29.5ZM12.27.7h7.97v1.84h-5.86v6.05h5.15v1.84h-5.15v6.83h5.86v1.84h-7.97V.7ZM6.64 19.1H4.53V2.54H.78V.7h9.61v1.84H6.64V19.1Z" clip-rule="evenodd"/>
</svg>
